<?xml version="1.0" standalone="yes"?>
<svg xmlns="http://www.w3.org/2000/svg" version="1.1" width="410" height="410">
<rect x="0" y="0" width="410" height="410" style="fill:#ffffff;shape-rendering:crispEdges;"/>
<rect x="0" y="0" width="14.137931034482758" height="14.137931034482758" style="fill:#000000;shape-rendering:crispEdges;"/>
<rect x="14.137931034482758" y="0" width="14.137931034482758" height="14.137931034482758" style="fill:#000000;shape-rendering:crispEdges;"/>
<rect x="28.275862068965516" y="0" width="14.137931034482758" height="14.137931034482758" style="fill:#000000;shape-rendering:crispEdges;"/>
<rect x="42.41379310344827" y="0" width="14.137931034482758" height="14.137931034482758" style="fill:#000000;shape-rendering:crispEdges;"/>
<rect x="56.55172413793103" y="0" width="14.137931034482758" height="14.137931034482758" style="fill:#000000;shape-rendering:crispEdges;"/>
<rect x="70.6896551724138" y="0" width="14.137931034482758" height="14.137931034482758" style="fill:#000000;shape-rendering:crispEdges;"/>
<rect x="84.82758620689654" y="0" width="14.137931034482758" height="14.137931034482758" style="fill:#000000;shape-rendering:crispEdges;"/>
<rect x="113.10344827586206" y="0" width="14.137931034482758" height="14.137931034482758" style="fill:#000000;shape-rendering:crispEdges;"/>
<rect x="141.3793103448276" y="0" width="14.137931034482758" height="14.137931034482758" style="fill:#000000;shape-rendering:crispEdges;"/>
<rect x="254.48275862068965" y="0" width="14.137931034482758" height="14.137931034482758" style="fill:#000000;shape-rendering:crispEdges;"/>
<rect x="282.7586206896552" y="0" width="14.137931034482758" height="14.137931034482758" style="fill:#000000;shape-rendering:crispEdges;"/>
<rect x="311.0344827586207" y="0" width="14.137931034482758" height="14.137931034482758" style="fill:#000000;shape-rendering:crispEdges;"/>
<rect x="325.17241379310343" y="0" width="14.137931034482758" height="14.137931034482758" style="fill:#000000;shape-rendering:crispEdges;"/>
<rect x="339.31034482758616" y="0" width="14.137931034482758" height="14.137931034482758" style="fill:#000000;shape-rendering:crispEdges;"/>
<rect x="353.44827586206895" y="0" width="14.137931034482758" height="14.137931034482758" style="fill:#000000;shape-rendering:crispEdges;"/>
<rect x="367.5862068965517" y="0" width="14.137931034482758" height="14.137931034482758" style="fill:#000000;shape-rendering:crispEdges;"/>
<rect x="381.7241379310345" y="0" width="14.137931034482758" height="14.137931034482758" style="fill:#000000;shape-rendering:crispEdges;"/>
<rect x="395.8620689655172" y="0" width="14.137931034482758" height="14.137931034482758" style="fill:#000000;shape-rendering:crispEdges;"/>
<rect x="0" y="14.137931034482758" width="14.137931034482758" height="14.137931034482758" style="fill:#000000;shape-rendering:crispEdges;"/>
<rect x="84.82758620689654" y="14.137931034482758" width="14.137931034482758" height="14.137931034482758" style="fill:#000000;shape-rendering:crispEdges;"/>
<rect x="113.10344827586206" y="14.137931034482758" width="14.137931034482758" height="14.137931034482758" style="fill:#000000;shape-rendering:crispEdges;"/>
<rect x="127.24137931034483" y="14.137931034482758" width="14.137931034482758" height="14.137931034482758" style="fill:#000000;shape-rendering:crispEdges;"/>
<rect x="141.3793103448276" y="14.137931034482758" width="14.137931034482758" height="14.137931034482758" style="fill:#000000;shape-rendering:crispEdges;"/>
<rect x="155.51724137931035" y="14.137931034482758" width="14.137931034482758" height="14.137931034482758" style="fill:#000000;shape-rendering:crispEdges;"/>
<rect x="183.79310344827584" y="14.137931034482758" width="14.137931034482758" height="14.137931034482758" style="fill:#000000;shape-rendering:crispEdges;"/>
<rect x="197.9310344827586" y="14.137931034482758" width="14.137931034482758" height="14.137931034482758" style="fill:#000000;shape-rendering:crispEdges;"/>
<rect x="240.3448275862069" y="14.137931034482758" width="14.137931034482758" height="14.137931034482758" style="fill:#000000;shape-rendering:crispEdges;"/>
<rect x="311.0344827586207" y="14.137931034482758" width="14.137931034482758" height="14.137931034482758" style="fill:#000000;shape-rendering:crispEdges;"/>
<rect x="395.8620689655172" y="14.137931034482758" width="14.137931034482758" height="14.137931034482758" style="fill:#000000;shape-rendering:crispEdges;"/>
<rect x="0" y="28.275862068965516" width="14.137931034482758" height="14.137931034482758" style="fill:#000000;shape-rendering:crispEdges;"/>
<rect x="28.275862068965516" y="28.275862068965516" width="14.137931034482758" height="14.137931034482758" style="fill:#000000;shape-rendering:crispEdges;"/>
<rect x="42.41379310344827" y="28.275862068965516" width="14.137931034482758" height="14.137931034482758" style="fill:#000000;shape-rendering:crispEdges;"/>
<rect x="56.55172413793103" y="28.275862068965516" width="14.137931034482758" height="14.137931034482758" style="fill:#000000;shape-rendering:crispEdges;"/>
<rect x="84.82758620689654" y="28.275862068965516" width="14.137931034482758" height="14.137931034482758" style="fill:#000000;shape-rendering:crispEdges;"/>
<rect x="141.3793103448276" y="28.275862068965516" width="14.137931034482758" height="14.137931034482758" style="fill:#000000;shape-rendering:crispEdges;"/>
<rect x="183.79310344827584" y="28.275862068965516" width="14.137931034482758" height="14.137931034482758" style="fill:#000000;shape-rendering:crispEdges;"/>
<rect x="197.9310344827586" y="28.275862068965516" width="14.137931034482758" height="14.137931034482758" style="fill:#000000;shape-rendering:crispEdges;"/>
<rect x="212.06896551724137" y="28.275862068965516" width="14.137931034482758" height="14.137931034482758" style="fill:#000000;shape-rendering:crispEdges;"/>
<rect x="226.20689655172413" y="28.275862068965516" width="14.137931034482758" height="14.137931034482758" style="fill:#000000;shape-rendering:crispEdges;"/>
<rect x="268.6206896551724" y="28.275862068965516" width="14.137931034482758" height="14.137931034482758" style="fill:#000000;shape-rendering:crispEdges;"/>
<rect x="282.7586206896552" y="28.275862068965516" width="14.137931034482758" height="14.137931034482758" style="fill:#000000;shape-rendering:crispEdges;"/>
<rect x="311.0344827586207" y="28.275862068965516" width="14.137931034482758" height="14.137931034482758" style="fill:#000000;shape-rendering:crispEdges;"/>
<rect x="339.31034482758616" y="28.275862068965516" width="14.137931034482758" height="14.137931034482758" style="fill:#000000;shape-rendering:crispEdges;"/>
<rect x="353.44827586206895" y="28.275862068965516" width="14.137931034482758" height="14.137931034482758" style="fill:#000000;shape-rendering:crispEdges;"/>
<rect x="367.5862068965517" y="28.275862068965516" width="14.137931034482758" height="14.137931034482758" style="fill:#000000;shape-rendering:crispEdges;"/>
<rect x="395.8620689655172" y="28.275862068965516" width="14.137931034482758" height="14.137931034482758" style="fill:#000000;shape-rendering:crispEdges;"/>
<rect x="0" y="42.41379310344827" width="14.137931034482758" height="14.137931034482758" style="fill:#000000;shape-rendering:crispEdges;"/>
<rect x="28.275862068965516" y="42.41379310344827" width="14.137931034482758" height="14.137931034482758" style="fill:#000000;shape-rendering:crispEdges;"/>
<rect x="42.41379310344827" y="42.41379310344827" width="14.137931034482758" height="14.137931034482758" style="fill:#000000;shape-rendering:crispEdges;"/>
<rect x="56.55172413793103" y="42.41379310344827" width="14.137931034482758" height="14.137931034482758" style="fill:#000000;shape-rendering:crispEdges;"/>
<rect x="84.82758620689654" y="42.41379310344827" width="14.137931034482758" height="14.137931034482758" style="fill:#000000;shape-rendering:crispEdges;"/>
<rect x="113.10344827586206" y="42.41379310344827" width="14.137931034482758" height="14.137931034482758" style="fill:#000000;shape-rendering:crispEdges;"/>
<rect x="127.24137931034483" y="42.41379310344827" width="14.137931034482758" height="14.137931034482758" style="fill:#000000;shape-rendering:crispEdges;"/>
<rect x="169.65517241379308" y="42.41379310344827" width="14.137931034482758" height="14.137931034482758" style="fill:#000000;shape-rendering:crispEdges;"/>
<rect x="183.79310344827584" y="42.41379310344827" width="14.137931034482758" height="14.137931034482758" style="fill:#000000;shape-rendering:crispEdges;"/>
<rect x="197.9310344827586" y="42.41379310344827" width="14.137931034482758" height="14.137931034482758" style="fill:#000000;shape-rendering:crispEdges;"/>
<rect x="226.20689655172413" y="42.41379310344827" width="14.137931034482758" height="14.137931034482758" style="fill:#000000;shape-rendering:crispEdges;"/>
<rect x="240.3448275862069" y="42.41379310344827" width="14.137931034482758" height="14.137931034482758" style="fill:#000000;shape-rendering:crispEdges;"/>
<rect x="254.48275862068965" y="42.41379310344827" width="14.137931034482758" height="14.137931034482758" style="fill:#000000;shape-rendering:crispEdges;"/>
<rect x="282.7586206896552" y="42.41379310344827" width="14.137931034482758" height="14.137931034482758" style="fill:#000000;shape-rendering:crispEdges;"/>
<rect x="311.0344827586207" y="42.41379310344827" width="14.137931034482758" height="14.137931034482758" style="fill:#000000;shape-rendering:crispEdges;"/>
<rect x="339.31034482758616" y="42.41379310344827" width="14.137931034482758" height="14.137931034482758" style="fill:#000000;shape-rendering:crispEdges;"/>
<rect x="353.44827586206895" y="42.41379310344827" width="14.137931034482758" height="14.137931034482758" style="fill:#000000;shape-rendering:crispEdges;"/>
<rect x="367.5862068965517" y="42.41379310344827" width="14.137931034482758" height="14.137931034482758" style="fill:#000000;shape-rendering:crispEdges;"/>
<rect x="395.8620689655172" y="42.41379310344827" width="14.137931034482758" height="14.137931034482758" style="fill:#000000;shape-rendering:crispEdges;"/>
<rect x="0" y="56.55172413793103" width="14.137931034482758" height="14.137931034482758" style="fill:#000000;shape-rendering:crispEdges;"/>
<rect x="28.275862068965516" y="56.55172413793103" width="14.137931034482758" height="14.137931034482758" style="fill:#000000;shape-rendering:crispEdges;"/>
<rect x="42.41379310344827" y="56.55172413793103" width="14.137931034482758" height="14.137931034482758" style="fill:#000000;shape-rendering:crispEdges;"/>
<rect x="56.55172413793103" y="56.55172413793103" width="14.137931034482758" height="14.137931034482758" style="fill:#000000;shape-rendering:crispEdges;"/>
<rect x="84.82758620689654" y="56.55172413793103" width="14.137931034482758" height="14.137931034482758" style="fill:#000000;shape-rendering:crispEdges;"/>
<rect x="127.24137931034483" y="56.55172413793103" width="14.137931034482758" height="14.137931034482758" style="fill:#000000;shape-rendering:crispEdges;"/>
<rect x="141.3793103448276" y="56.55172413793103" width="14.137931034482758" height="14.137931034482758" style="fill:#000000;shape-rendering:crispEdges;"/>
<rect x="169.65517241379308" y="56.55172413793103" width="14.137931034482758" height="14.137931034482758" style="fill:#000000;shape-rendering:crispEdges;"/>
<rect x="183.79310344827584" y="56.55172413793103" width="14.137931034482758" height="14.137931034482758" style="fill:#000000;shape-rendering:crispEdges;"/>
<rect x="212.06896551724137" y="56.55172413793103" width="14.137931034482758" height="14.137931034482758" style="fill:#000000;shape-rendering:crispEdges;"/>
<rect x="254.48275862068965" y="56.55172413793103" width="14.137931034482758" height="14.137931034482758" style="fill:#000000;shape-rendering:crispEdges;"/>
<rect x="268.6206896551724" y="56.55172413793103" width="14.137931034482758" height="14.137931034482758" style="fill:#000000;shape-rendering:crispEdges;"/>
<rect x="311.0344827586207" y="56.55172413793103" width="14.137931034482758" height="14.137931034482758" style="fill:#000000;shape-rendering:crispEdges;"/>
<rect x="339.31034482758616" y="56.55172413793103" width="14.137931034482758" height="14.137931034482758" style="fill:#000000;shape-rendering:crispEdges;"/>
<rect x="353.44827586206895" y="56.55172413793103" width="14.137931034482758" height="14.137931034482758" style="fill:#000000;shape-rendering:crispEdges;"/>
<rect x="367.5862068965517" y="56.55172413793103" width="14.137931034482758" height="14.137931034482758" style="fill:#000000;shape-rendering:crispEdges;"/>
<rect x="395.8620689655172" y="56.55172413793103" width="14.137931034482758" height="14.137931034482758" style="fill:#000000;shape-rendering:crispEdges;"/>
<rect x="0" y="70.6896551724138" width="14.137931034482758" height="14.137931034482758" style="fill:#000000;shape-rendering:crispEdges;"/>
<rect x="84.82758620689654" y="70.6896551724138" width="14.137931034482758" height="14.137931034482758" style="fill:#000000;shape-rendering:crispEdges;"/>
<rect x="141.3793103448276" y="70.6896551724138" width="14.137931034482758" height="14.137931034482758" style="fill:#000000;shape-rendering:crispEdges;"/>
<rect x="169.65517241379308" y="70.6896551724138" width="14.137931034482758" height="14.137931034482758" style="fill:#000000;shape-rendering:crispEdges;"/>
<rect x="183.79310344827584" y="70.6896551724138" width="14.137931034482758" height="14.137931034482758" style="fill:#000000;shape-rendering:crispEdges;"/>
<rect x="212.06896551724137" y="70.6896551724138" width="14.137931034482758" height="14.137931034482758" style="fill:#000000;shape-rendering:crispEdges;"/>
<rect x="240.3448275862069" y="70.6896551724138" width="14.137931034482758" height="14.137931034482758" style="fill:#000000;shape-rendering:crispEdges;"/>
<rect x="311.0344827586207" y="70.6896551724138" width="14.137931034482758" height="14.137931034482758" style="fill:#000000;shape-rendering:crispEdges;"/>
<rect x="395.8620689655172" y="70.6896551724138" width="14.137931034482758" height="14.137931034482758" style="fill:#000000;shape-rendering:crispEdges;"/>
<rect x="0" y="84.82758620689654" width="14.137931034482758" height="14.137931034482758" style="fill:#000000;shape-rendering:crispEdges;"/>
<rect x="14.137931034482758" y="84.82758620689654" width="14.137931034482758" height="14.137931034482758" style="fill:#000000;shape-rendering:crispEdges;"/>
<rect x="28.275862068965516" y="84.82758620689654" width="14.137931034482758" height="14.137931034482758" style="fill:#000000;shape-rendering:crispEdges;"/>
<rect x="42.41379310344827" y="84.82758620689654" width="14.137931034482758" height="14.137931034482758" style="fill:#000000;shape-rendering:crispEdges;"/>
<rect x="56.55172413793103" y="84.82758620689654" width="14.137931034482758" height="14.137931034482758" style="fill:#000000;shape-rendering:crispEdges;"/>
<rect x="70.6896551724138" y="84.82758620689654" width="14.137931034482758" height="14.137931034482758" style="fill:#000000;shape-rendering:crispEdges;"/>
<rect x="84.82758620689654" y="84.82758620689654" width="14.137931034482758" height="14.137931034482758" style="fill:#000000;shape-rendering:crispEdges;"/>
<rect x="113.10344827586206" y="84.82758620689654" width="14.137931034482758" height="14.137931034482758" style="fill:#000000;shape-rendering:crispEdges;"/>
<rect x="141.3793103448276" y="84.82758620689654" width="14.137931034482758" height="14.137931034482758" style="fill:#000000;shape-rendering:crispEdges;"/>
<rect x="169.65517241379308" y="84.82758620689654" width="14.137931034482758" height="14.137931034482758" style="fill:#000000;shape-rendering:crispEdges;"/>
<rect x="197.9310344827586" y="84.82758620689654" width="14.137931034482758" height="14.137931034482758" style="fill:#000000;shape-rendering:crispEdges;"/>
<rect x="226.20689655172413" y="84.82758620689654" width="14.137931034482758" height="14.137931034482758" style="fill:#000000;shape-rendering:crispEdges;"/>
<rect x="254.48275862068965" y="84.82758620689654" width="14.137931034482758" height="14.137931034482758" style="fill:#000000;shape-rendering:crispEdges;"/>
<rect x="282.7586206896552" y="84.82758620689654" width="14.137931034482758" height="14.137931034482758" style="fill:#000000;shape-rendering:crispEdges;"/>
<rect x="311.0344827586207" y="84.82758620689654" width="14.137931034482758" height="14.137931034482758" style="fill:#000000;shape-rendering:crispEdges;"/>
<rect x="325.17241379310343" y="84.82758620689654" width="14.137931034482758" height="14.137931034482758" style="fill:#000000;shape-rendering:crispEdges;"/>
<rect x="339.31034482758616" y="84.82758620689654" width="14.137931034482758" height="14.137931034482758" style="fill:#000000;shape-rendering:crispEdges;"/>
<rect x="353.44827586206895" y="84.82758620689654" width="14.137931034482758" height="14.137931034482758" style="fill:#000000;shape-rendering:crispEdges;"/>
<rect x="367.5862068965517" y="84.82758620689654" width="14.137931034482758" height="14.137931034482758" style="fill:#000000;shape-rendering:crispEdges;"/>
<rect x="381.7241379310345" y="84.82758620689654" width="14.137931034482758" height="14.137931034482758" style="fill:#000000;shape-rendering:crispEdges;"/>
<rect x="395.8620689655172" y="84.82758620689654" width="14.137931034482758" height="14.137931034482758" style="fill:#000000;shape-rendering:crispEdges;"/>
<rect x="113.10344827586206" y="98.9655172413793" width="14.137931034482758" height="14.137931034482758" style="fill:#000000;shape-rendering:crispEdges;"/>
<rect x="127.24137931034483" y="98.9655172413793" width="14.137931034482758" height="14.137931034482758" style="fill:#000000;shape-rendering:crispEdges;"/>
<rect x="169.65517241379308" y="98.9655172413793" width="14.137931034482758" height="14.137931034482758" style="fill:#000000;shape-rendering:crispEdges;"/>
<rect x="183.79310344827584" y="98.9655172413793" width="14.137931034482758" height="14.137931034482758" style="fill:#000000;shape-rendering:crispEdges;"/>
<rect x="197.9310344827586" y="98.9655172413793" width="14.137931034482758" height="14.137931034482758" style="fill:#000000;shape-rendering:crispEdges;"/>
<rect x="212.06896551724137" y="98.9655172413793" width="14.137931034482758" height="14.137931034482758" style="fill:#000000;shape-rendering:crispEdges;"/>
<rect x="226.20689655172413" y="98.9655172413793" width="14.137931034482758" height="14.137931034482758" style="fill:#000000;shape-rendering:crispEdges;"/>
<rect x="254.48275862068965" y="98.9655172413793" width="14.137931034482758" height="14.137931034482758" style="fill:#000000;shape-rendering:crispEdges;"/>
<rect x="282.7586206896552" y="98.9655172413793" width="14.137931034482758" height="14.137931034482758" style="fill:#000000;shape-rendering:crispEdges;"/>
<rect x="14.137931034482758" y="113.10344827586206" width="14.137931034482758" height="14.137931034482758" style="fill:#000000;shape-rendering:crispEdges;"/>
<rect x="28.275862068965516" y="113.10344827586206" width="14.137931034482758" height="14.137931034482758" style="fill:#000000;shape-rendering:crispEdges;"/>
<rect x="56.55172413793103" y="113.10344827586206" width="14.137931034482758" height="14.137931034482758" style="fill:#000000;shape-rendering:crispEdges;"/>
<rect x="70.6896551724138" y="113.10344827586206" width="14.137931034482758" height="14.137931034482758" style="fill:#000000;shape-rendering:crispEdges;"/>
<rect x="84.82758620689654" y="113.10344827586206" width="14.137931034482758" height="14.137931034482758" style="fill:#000000;shape-rendering:crispEdges;"/>
<rect x="98.9655172413793" y="113.10344827586206" width="14.137931034482758" height="14.137931034482758" style="fill:#000000;shape-rendering:crispEdges;"/>
<rect x="127.24137931034483" y="113.10344827586206" width="14.137931034482758" height="14.137931034482758" style="fill:#000000;shape-rendering:crispEdges;"/>
<rect x="169.65517241379308" y="113.10344827586206" width="14.137931034482758" height="14.137931034482758" style="fill:#000000;shape-rendering:crispEdges;"/>
<rect x="183.79310344827584" y="113.10344827586206" width="14.137931034482758" height="14.137931034482758" style="fill:#000000;shape-rendering:crispEdges;"/>
<rect x="226.20689655172413" y="113.10344827586206" width="14.137931034482758" height="14.137931034482758" style="fill:#000000;shape-rendering:crispEdges;"/>
<rect x="296.8965517241379" y="113.10344827586206" width="14.137931034482758" height="14.137931034482758" style="fill:#000000;shape-rendering:crispEdges;"/>
<rect x="311.0344827586207" y="113.10344827586206" width="14.137931034482758" height="14.137931034482758" style="fill:#000000;shape-rendering:crispEdges;"/>
<rect x="353.44827586206895" y="113.10344827586206" width="14.137931034482758" height="14.137931034482758" style="fill:#000000;shape-rendering:crispEdges;"/>
<rect x="381.7241379310345" y="113.10344827586206" width="14.137931034482758" height="14.137931034482758" style="fill:#000000;shape-rendering:crispEdges;"/>
<rect x="395.8620689655172" y="113.10344827586206" width="14.137931034482758" height="14.137931034482758" style="fill:#000000;shape-rendering:crispEdges;"/>
<rect x="0" y="127.24137931034483" width="14.137931034482758" height="14.137931034482758" style="fill:#000000;shape-rendering:crispEdges;"/>
<rect x="28.275862068965516" y="127.24137931034483" width="14.137931034482758" height="14.137931034482758" style="fill:#000000;shape-rendering:crispEdges;"/>
<rect x="42.41379310344827" y="127.24137931034483" width="14.137931034482758" height="14.137931034482758" style="fill:#000000;shape-rendering:crispEdges;"/>
<rect x="70.6896551724138" y="127.24137931034483" width="14.137931034482758" height="14.137931034482758" style="fill:#000000;shape-rendering:crispEdges;"/>
<rect x="98.9655172413793" y="127.24137931034483" width="14.137931034482758" height="14.137931034482758" style="fill:#000000;shape-rendering:crispEdges;"/>
<rect x="141.3793103448276" y="127.24137931034483" width="14.137931034482758" height="14.137931034482758" style="fill:#000000;shape-rendering:crispEdges;"/>
<rect x="183.79310344827584" y="127.24137931034483" width="14.137931034482758" height="14.137931034482758" style="fill:#000000;shape-rendering:crispEdges;"/>
<rect x="197.9310344827586" y="127.24137931034483" width="14.137931034482758" height="14.137931034482758" style="fill:#000000;shape-rendering:crispEdges;"/>
<rect x="226.20689655172413" y="127.24137931034483" width="14.137931034482758" height="14.137931034482758" style="fill:#000000;shape-rendering:crispEdges;"/>
<rect x="240.3448275862069" y="127.24137931034483" width="14.137931034482758" height="14.137931034482758" style="fill:#000000;shape-rendering:crispEdges;"/>
<rect x="254.48275862068965" y="127.24137931034483" width="14.137931034482758" height="14.137931034482758" style="fill:#000000;shape-rendering:crispEdges;"/>
<rect x="268.6206896551724" y="127.24137931034483" width="14.137931034482758" height="14.137931034482758" style="fill:#000000;shape-rendering:crispEdges;"/>
<rect x="282.7586206896552" y="127.24137931034483" width="14.137931034482758" height="14.137931034482758" style="fill:#000000;shape-rendering:crispEdges;"/>
<rect x="325.17241379310343" y="127.24137931034483" width="14.137931034482758" height="14.137931034482758" style="fill:#000000;shape-rendering:crispEdges;"/>
<rect x="353.44827586206895" y="127.24137931034483" width="14.137931034482758" height="14.137931034482758" style="fill:#000000;shape-rendering:crispEdges;"/>
<rect x="367.5862068965517" y="127.24137931034483" width="14.137931034482758" height="14.137931034482758" style="fill:#000000;shape-rendering:crispEdges;"/>
<rect x="28.275862068965516" y="141.3793103448276" width="14.137931034482758" height="14.137931034482758" style="fill:#000000;shape-rendering:crispEdges;"/>
<rect x="42.41379310344827" y="141.3793103448276" width="14.137931034482758" height="14.137931034482758" style="fill:#000000;shape-rendering:crispEdges;"/>
<rect x="84.82758620689654" y="141.3793103448276" width="14.137931034482758" height="14.137931034482758" style="fill:#000000;shape-rendering:crispEdges;"/>
<rect x="113.10344827586206" y="141.3793103448276" width="14.137931034482758" height="14.137931034482758" style="fill:#000000;shape-rendering:crispEdges;"/>
<rect x="127.24137931034483" y="141.3793103448276" width="14.137931034482758" height="14.137931034482758" style="fill:#000000;shape-rendering:crispEdges;"/>
<rect x="141.3793103448276" y="141.3793103448276" width="14.137931034482758" height="14.137931034482758" style="fill:#000000;shape-rendering:crispEdges;"/>
<rect x="183.79310344827584" y="141.3793103448276" width="14.137931034482758" height="14.137931034482758" style="fill:#000000;shape-rendering:crispEdges;"/>
<rect x="212.06896551724137" y="141.3793103448276" width="14.137931034482758" height="14.137931034482758" style="fill:#000000;shape-rendering:crispEdges;"/>
<rect x="240.3448275862069" y="141.3793103448276" width="14.137931034482758" height="14.137931034482758" style="fill:#000000;shape-rendering:crispEdges;"/>
<rect x="254.48275862068965" y="141.3793103448276" width="14.137931034482758" height="14.137931034482758" style="fill:#000000;shape-rendering:crispEdges;"/>
<rect x="268.6206896551724" y="141.3793103448276" width="14.137931034482758" height="14.137931034482758" style="fill:#000000;shape-rendering:crispEdges;"/>
<rect x="325.17241379310343" y="141.3793103448276" width="14.137931034482758" height="14.137931034482758" style="fill:#000000;shape-rendering:crispEdges;"/>
<rect x="353.44827586206895" y="141.3793103448276" width="14.137931034482758" height="14.137931034482758" style="fill:#000000;shape-rendering:crispEdges;"/>
<rect x="395.8620689655172" y="141.3793103448276" width="14.137931034482758" height="14.137931034482758" style="fill:#000000;shape-rendering:crispEdges;"/>
<rect x="14.137931034482758" y="155.51724137931035" width="14.137931034482758" height="14.137931034482758" style="fill:#000000;shape-rendering:crispEdges;"/>
<rect x="28.275862068965516" y="155.51724137931035" width="14.137931034482758" height="14.137931034482758" style="fill:#000000;shape-rendering:crispEdges;"/>
<rect x="42.41379310344827" y="155.51724137931035" width="14.137931034482758" height="14.137931034482758" style="fill:#000000;shape-rendering:crispEdges;"/>
<rect x="70.6896551724138" y="155.51724137931035" width="14.137931034482758" height="14.137931034482758" style="fill:#000000;shape-rendering:crispEdges;"/>
<rect x="127.24137931034483" y="155.51724137931035" width="14.137931034482758" height="14.137931034482758" style="fill:#000000;shape-rendering:crispEdges;"/>
<rect x="183.79310344827584" y="155.51724137931035" width="14.137931034482758" height="14.137931034482758" style="fill:#000000;shape-rendering:crispEdges;"/>
<rect x="226.20689655172413" y="155.51724137931035" width="14.137931034482758" height="14.137931034482758" style="fill:#000000;shape-rendering:crispEdges;"/>
<rect x="268.6206896551724" y="155.51724137931035" width="14.137931034482758" height="14.137931034482758" style="fill:#000000;shape-rendering:crispEdges;"/>
<rect x="282.7586206896552" y="155.51724137931035" width="14.137931034482758" height="14.137931034482758" style="fill:#000000;shape-rendering:crispEdges;"/>
<rect x="296.8965517241379" y="155.51724137931035" width="14.137931034482758" height="14.137931034482758" style="fill:#000000;shape-rendering:crispEdges;"/>
<rect x="311.0344827586207" y="155.51724137931035" width="14.137931034482758" height="14.137931034482758" style="fill:#000000;shape-rendering:crispEdges;"/>
<rect x="325.17241379310343" y="155.51724137931035" width="14.137931034482758" height="14.137931034482758" style="fill:#000000;shape-rendering:crispEdges;"/>
<rect x="339.31034482758616" y="155.51724137931035" width="14.137931034482758" height="14.137931034482758" style="fill:#000000;shape-rendering:crispEdges;"/>
<rect x="353.44827586206895" y="155.51724137931035" width="14.137931034482758" height="14.137931034482758" style="fill:#000000;shape-rendering:crispEdges;"/>
<rect x="367.5862068965517" y="155.51724137931035" width="14.137931034482758" height="14.137931034482758" style="fill:#000000;shape-rendering:crispEdges;"/>
<rect x="381.7241379310345" y="155.51724137931035" width="14.137931034482758" height="14.137931034482758" style="fill:#000000;shape-rendering:crispEdges;"/>
<rect x="0" y="169.65517241379308" width="14.137931034482758" height="14.137931034482758" style="fill:#000000;shape-rendering:crispEdges;"/>
<rect x="14.137931034482758" y="169.65517241379308" width="14.137931034482758" height="14.137931034482758" style="fill:#000000;shape-rendering:crispEdges;"/>
<rect x="28.275862068965516" y="169.65517241379308" width="14.137931034482758" height="14.137931034482758" style="fill:#000000;shape-rendering:crispEdges;"/>
<rect x="84.82758620689654" y="169.65517241379308" width="14.137931034482758" height="14.137931034482758" style="fill:#000000;shape-rendering:crispEdges;"/>
<rect x="98.9655172413793" y="169.65517241379308" width="14.137931034482758" height="14.137931034482758" style="fill:#000000;shape-rendering:crispEdges;"/>
<rect x="169.65517241379308" y="169.65517241379308" width="14.137931034482758" height="14.137931034482758" style="fill:#000000;shape-rendering:crispEdges;"/>
<rect x="183.79310344827584" y="169.65517241379308" width="14.137931034482758" height="14.137931034482758" style="fill:#000000;shape-rendering:crispEdges;"/>
<rect x="197.9310344827586" y="169.65517241379308" width="14.137931034482758" height="14.137931034482758" style="fill:#000000;shape-rendering:crispEdges;"/>
<rect x="212.06896551724137" y="169.65517241379308" width="14.137931034482758" height="14.137931034482758" style="fill:#000000;shape-rendering:crispEdges;"/>
<rect x="282.7586206896552" y="169.65517241379308" width="14.137931034482758" height="14.137931034482758" style="fill:#000000;shape-rendering:crispEdges;"/>
<rect x="296.8965517241379" y="169.65517241379308" width="14.137931034482758" height="14.137931034482758" style="fill:#000000;shape-rendering:crispEdges;"/>
<rect x="311.0344827586207" y="169.65517241379308" width="14.137931034482758" height="14.137931034482758" style="fill:#000000;shape-rendering:crispEdges;"/>
<rect x="325.17241379310343" y="169.65517241379308" width="14.137931034482758" height="14.137931034482758" style="fill:#000000;shape-rendering:crispEdges;"/>
<rect x="395.8620689655172" y="169.65517241379308" width="14.137931034482758" height="14.137931034482758" style="fill:#000000;shape-rendering:crispEdges;"/>
<rect x="0" y="183.79310344827584" width="14.137931034482758" height="14.137931034482758" style="fill:#000000;shape-rendering:crispEdges;"/>
<rect x="56.55172413793103" y="183.79310344827584" width="14.137931034482758" height="14.137931034482758" style="fill:#000000;shape-rendering:crispEdges;"/>
<rect x="113.10344827586206" y="183.79310344827584" width="14.137931034482758" height="14.137931034482758" style="fill:#000000;shape-rendering:crispEdges;"/>
<rect x="127.24137931034483" y="183.79310344827584" width="14.137931034482758" height="14.137931034482758" style="fill:#000000;shape-rendering:crispEdges;"/>
<rect x="155.51724137931035" y="183.79310344827584" width="14.137931034482758" height="14.137931034482758" style="fill:#000000;shape-rendering:crispEdges;"/>
<rect x="169.65517241379308" y="183.79310344827584" width="14.137931034482758" height="14.137931034482758" style="fill:#000000;shape-rendering:crispEdges;"/>
<rect x="212.06896551724137" y="183.79310344827584" width="14.137931034482758" height="14.137931034482758" style="fill:#000000;shape-rendering:crispEdges;"/>
<rect x="240.3448275862069" y="183.79310344827584" width="14.137931034482758" height="14.137931034482758" style="fill:#000000;shape-rendering:crispEdges;"/>
<rect x="254.48275862068965" y="183.79310344827584" width="14.137931034482758" height="14.137931034482758" style="fill:#000000;shape-rendering:crispEdges;"/>
<rect x="282.7586206896552" y="183.79310344827584" width="14.137931034482758" height="14.137931034482758" style="fill:#000000;shape-rendering:crispEdges;"/>
<rect x="296.8965517241379" y="183.79310344827584" width="14.137931034482758" height="14.137931034482758" style="fill:#000000;shape-rendering:crispEdges;"/>
<rect x="311.0344827586207" y="183.79310344827584" width="14.137931034482758" height="14.137931034482758" style="fill:#000000;shape-rendering:crispEdges;"/>
<rect x="325.17241379310343" y="183.79310344827584" width="14.137931034482758" height="14.137931034482758" style="fill:#000000;shape-rendering:crispEdges;"/>
<rect x="353.44827586206895" y="183.79310344827584" width="14.137931034482758" height="14.137931034482758" style="fill:#000000;shape-rendering:crispEdges;"/>
<rect x="367.5862068965517" y="183.79310344827584" width="14.137931034482758" height="14.137931034482758" style="fill:#000000;shape-rendering:crispEdges;"/>
<rect x="395.8620689655172" y="183.79310344827584" width="14.137931034482758" height="14.137931034482758" style="fill:#000000;shape-rendering:crispEdges;"/>
<rect x="70.6896551724138" y="197.9310344827586" width="14.137931034482758" height="14.137931034482758" style="fill:#000000;shape-rendering:crispEdges;"/>
<rect x="84.82758620689654" y="197.9310344827586" width="14.137931034482758" height="14.137931034482758" style="fill:#000000;shape-rendering:crispEdges;"/>
<rect x="127.24137931034483" y="197.9310344827586" width="14.137931034482758" height="14.137931034482758" style="fill:#000000;shape-rendering:crispEdges;"/>
<rect x="141.3793103448276" y="197.9310344827586" width="14.137931034482758" height="14.137931034482758" style="fill:#000000;shape-rendering:crispEdges;"/>
<rect x="155.51724137931035" y="197.9310344827586" width="14.137931034482758" height="14.137931034482758" style="fill:#000000;shape-rendering:crispEdges;"/>
<rect x="169.65517241379308" y="197.9310344827586" width="14.137931034482758" height="14.137931034482758" style="fill:#000000;shape-rendering:crispEdges;"/>
<rect x="183.79310344827584" y="197.9310344827586" width="14.137931034482758" height="14.137931034482758" style="fill:#000000;shape-rendering:crispEdges;"/>
<rect x="197.9310344827586" y="197.9310344827586" width="14.137931034482758" height="14.137931034482758" style="fill:#000000;shape-rendering:crispEdges;"/>
<rect x="226.20689655172413" y="197.9310344827586" width="14.137931034482758" height="14.137931034482758" style="fill:#000000;shape-rendering:crispEdges;"/>
<rect x="254.48275862068965" y="197.9310344827586" width="14.137931034482758" height="14.137931034482758" style="fill:#000000;shape-rendering:crispEdges;"/>
<rect x="268.6206896551724" y="197.9310344827586" width="14.137931034482758" height="14.137931034482758" style="fill:#000000;shape-rendering:crispEdges;"/>
<rect x="296.8965517241379" y="197.9310344827586" width="14.137931034482758" height="14.137931034482758" style="fill:#000000;shape-rendering:crispEdges;"/>
<rect x="311.0344827586207" y="197.9310344827586" width="14.137931034482758" height="14.137931034482758" style="fill:#000000;shape-rendering:crispEdges;"/>
<rect x="339.31034482758616" y="197.9310344827586" width="14.137931034482758" height="14.137931034482758" style="fill:#000000;shape-rendering:crispEdges;"/>
<rect x="367.5862068965517" y="197.9310344827586" width="14.137931034482758" height="14.137931034482758" style="fill:#000000;shape-rendering:crispEdges;"/>
<rect x="0" y="212.06896551724137" width="14.137931034482758" height="14.137931034482758" style="fill:#000000;shape-rendering:crispEdges;"/>
<rect x="14.137931034482758" y="212.06896551724137" width="14.137931034482758" height="14.137931034482758" style="fill:#000000;shape-rendering:crispEdges;"/>
<rect x="42.41379310344827" y="212.06896551724137" width="14.137931034482758" height="14.137931034482758" style="fill:#000000;shape-rendering:crispEdges;"/>
<rect x="56.55172413793103" y="212.06896551724137" width="14.137931034482758" height="14.137931034482758" style="fill:#000000;shape-rendering:crispEdges;"/>
<rect x="70.6896551724138" y="212.06896551724137" width="14.137931034482758" height="14.137931034482758" style="fill:#000000;shape-rendering:crispEdges;"/>
<rect x="98.9655172413793" y="212.06896551724137" width="14.137931034482758" height="14.137931034482758" style="fill:#000000;shape-rendering:crispEdges;"/>
<rect x="268.6206896551724" y="212.06896551724137" width="14.137931034482758" height="14.137931034482758" style="fill:#000000;shape-rendering:crispEdges;"/>
<rect x="381.7241379310345" y="212.06896551724137" width="14.137931034482758" height="14.137931034482758" style="fill:#000000;shape-rendering:crispEdges;"/>
<rect x="0" y="226.20689655172413" width="14.137931034482758" height="14.137931034482758" style="fill:#000000;shape-rendering:crispEdges;"/>
<rect x="14.137931034482758" y="226.20689655172413" width="14.137931034482758" height="14.137931034482758" style="fill:#000000;shape-rendering:crispEdges;"/>
<rect x="28.275862068965516" y="226.20689655172413" width="14.137931034482758" height="14.137931034482758" style="fill:#000000;shape-rendering:crispEdges;"/>
<rect x="42.41379310344827" y="226.20689655172413" width="14.137931034482758" height="14.137931034482758" style="fill:#000000;shape-rendering:crispEdges;"/>
<rect x="70.6896551724138" y="226.20689655172413" width="14.137931034482758" height="14.137931034482758" style="fill:#000000;shape-rendering:crispEdges;"/>
<rect x="84.82758620689654" y="226.20689655172413" width="14.137931034482758" height="14.137931034482758" style="fill:#000000;shape-rendering:crispEdges;"/>
<rect x="141.3793103448276" y="226.20689655172413" width="14.137931034482758" height="14.137931034482758" style="fill:#000000;shape-rendering:crispEdges;"/>
<rect x="183.79310344827584" y="226.20689655172413" width="14.137931034482758" height="14.137931034482758" style="fill:#000000;shape-rendering:crispEdges;"/>
<rect x="197.9310344827586" y="226.20689655172413" width="14.137931034482758" height="14.137931034482758" style="fill:#000000;shape-rendering:crispEdges;"/>
<rect x="226.20689655172413" y="226.20689655172413" width="14.137931034482758" height="14.137931034482758" style="fill:#000000;shape-rendering:crispEdges;"/>
<rect x="268.6206896551724" y="226.20689655172413" width="14.137931034482758" height="14.137931034482758" style="fill:#000000;shape-rendering:crispEdges;"/>
<rect x="311.0344827586207" y="226.20689655172413" width="14.137931034482758" height="14.137931034482758" style="fill:#000000;shape-rendering:crispEdges;"/>
<rect x="353.44827586206895" y="226.20689655172413" width="14.137931034482758" height="14.137931034482758" style="fill:#000000;shape-rendering:crispEdges;"/>
<rect x="381.7241379310345" y="226.20689655172413" width="14.137931034482758" height="14.137931034482758" style="fill:#000000;shape-rendering:crispEdges;"/>
<rect x="395.8620689655172" y="226.20689655172413" width="14.137931034482758" height="14.137931034482758" style="fill:#000000;shape-rendering:crispEdges;"/>
<rect x="0" y="240.3448275862069" width="14.137931034482758" height="14.137931034482758" style="fill:#000000;shape-rendering:crispEdges;"/>
<rect x="28.275862068965516" y="240.3448275862069" width="14.137931034482758" height="14.137931034482758" style="fill:#000000;shape-rendering:crispEdges;"/>
<rect x="70.6896551724138" y="240.3448275862069" width="14.137931034482758" height="14.137931034482758" style="fill:#000000;shape-rendering:crispEdges;"/>
<rect x="98.9655172413793" y="240.3448275862069" width="14.137931034482758" height="14.137931034482758" style="fill:#000000;shape-rendering:crispEdges;"/>
<rect x="127.24137931034483" y="240.3448275862069" width="14.137931034482758" height="14.137931034482758" style="fill:#000000;shape-rendering:crispEdges;"/>
<rect x="169.65517241379308" y="240.3448275862069" width="14.137931034482758" height="14.137931034482758" style="fill:#000000;shape-rendering:crispEdges;"/>
<rect x="183.79310344827584" y="240.3448275862069" width="14.137931034482758" height="14.137931034482758" style="fill:#000000;shape-rendering:crispEdges;"/>
<rect x="212.06896551724137" y="240.3448275862069" width="14.137931034482758" height="14.137931034482758" style="fill:#000000;shape-rendering:crispEdges;"/>
<rect x="226.20689655172413" y="240.3448275862069" width="14.137931034482758" height="14.137931034482758" style="fill:#000000;shape-rendering:crispEdges;"/>
<rect x="268.6206896551724" y="240.3448275862069" width="14.137931034482758" height="14.137931034482758" style="fill:#000000;shape-rendering:crispEdges;"/>
<rect x="339.31034482758616" y="240.3448275862069" width="14.137931034482758" height="14.137931034482758" style="fill:#000000;shape-rendering:crispEdges;"/>
<rect x="353.44827586206895" y="240.3448275862069" width="14.137931034482758" height="14.137931034482758" style="fill:#000000;shape-rendering:crispEdges;"/>
<rect x="381.7241379310345" y="240.3448275862069" width="14.137931034482758" height="14.137931034482758" style="fill:#000000;shape-rendering:crispEdges;"/>
<rect x="395.8620689655172" y="240.3448275862069" width="14.137931034482758" height="14.137931034482758" style="fill:#000000;shape-rendering:crispEdges;"/>
<rect x="0" y="254.48275862068965" width="14.137931034482758" height="14.137931034482758" style="fill:#000000;shape-rendering:crispEdges;"/>
<rect x="14.137931034482758" y="254.48275862068965" width="14.137931034482758" height="14.137931034482758" style="fill:#000000;shape-rendering:crispEdges;"/>
<rect x="70.6896551724138" y="254.48275862068965" width="14.137931034482758" height="14.137931034482758" style="fill:#000000;shape-rendering:crispEdges;"/>
<rect x="84.82758620689654" y="254.48275862068965" width="14.137931034482758" height="14.137931034482758" style="fill:#000000;shape-rendering:crispEdges;"/>
<rect x="98.9655172413793" y="254.48275862068965" width="14.137931034482758" height="14.137931034482758" style="fill:#000000;shape-rendering:crispEdges;"/>
<rect x="113.10344827586206" y="254.48275862068965" width="14.137931034482758" height="14.137931034482758" style="fill:#000000;shape-rendering:crispEdges;"/>
<rect x="127.24137931034483" y="254.48275862068965" width="14.137931034482758" height="14.137931034482758" style="fill:#000000;shape-rendering:crispEdges;"/>
<rect x="141.3793103448276" y="254.48275862068965" width="14.137931034482758" height="14.137931034482758" style="fill:#000000;shape-rendering:crispEdges;"/>
<rect x="155.51724137931035" y="254.48275862068965" width="14.137931034482758" height="14.137931034482758" style="fill:#000000;shape-rendering:crispEdges;"/>
<rect x="169.65517241379308" y="254.48275862068965" width="14.137931034482758" height="14.137931034482758" style="fill:#000000;shape-rendering:crispEdges;"/>
<rect x="183.79310344827584" y="254.48275862068965" width="14.137931034482758" height="14.137931034482758" style="fill:#000000;shape-rendering:crispEdges;"/>
<rect x="197.9310344827586" y="254.48275862068965" width="14.137931034482758" height="14.137931034482758" style="fill:#000000;shape-rendering:crispEdges;"/>
<rect x="212.06896551724137" y="254.48275862068965" width="14.137931034482758" height="14.137931034482758" style="fill:#000000;shape-rendering:crispEdges;"/>
<rect x="226.20689655172413" y="254.48275862068965" width="14.137931034482758" height="14.137931034482758" style="fill:#000000;shape-rendering:crispEdges;"/>
<rect x="240.3448275862069" y="254.48275862068965" width="14.137931034482758" height="14.137931034482758" style="fill:#000000;shape-rendering:crispEdges;"/>
<rect x="254.48275862068965" y="254.48275862068965" width="14.137931034482758" height="14.137931034482758" style="fill:#000000;shape-rendering:crispEdges;"/>
<rect x="282.7586206896552" y="254.48275862068965" width="14.137931034482758" height="14.137931034482758" style="fill:#000000;shape-rendering:crispEdges;"/>
<rect x="296.8965517241379" y="254.48275862068965" width="14.137931034482758" height="14.137931034482758" style="fill:#000000;shape-rendering:crispEdges;"/>
<rect x="311.0344827586207" y="254.48275862068965" width="14.137931034482758" height="14.137931034482758" style="fill:#000000;shape-rendering:crispEdges;"/>
<rect x="325.17241379310343" y="254.48275862068965" width="14.137931034482758" height="14.137931034482758" style="fill:#000000;shape-rendering:crispEdges;"/>
<rect x="339.31034482758616" y="254.48275862068965" width="14.137931034482758" height="14.137931034482758" style="fill:#000000;shape-rendering:crispEdges;"/>
<rect x="353.44827586206895" y="254.48275862068965" width="14.137931034482758" height="14.137931034482758" style="fill:#000000;shape-rendering:crispEdges;"/>
<rect x="381.7241379310345" y="254.48275862068965" width="14.137931034482758" height="14.137931034482758" style="fill:#000000;shape-rendering:crispEdges;"/>
<rect x="395.8620689655172" y="254.48275862068965" width="14.137931034482758" height="14.137931034482758" style="fill:#000000;shape-rendering:crispEdges;"/>
<rect x="0" y="268.6206896551724" width="14.137931034482758" height="14.137931034482758" style="fill:#000000;shape-rendering:crispEdges;"/>
<rect x="42.41379310344827" y="268.6206896551724" width="14.137931034482758" height="14.137931034482758" style="fill:#000000;shape-rendering:crispEdges;"/>
<rect x="70.6896551724138" y="268.6206896551724" width="14.137931034482758" height="14.137931034482758" style="fill:#000000;shape-rendering:crispEdges;"/>
<rect x="98.9655172413793" y="268.6206896551724" width="14.137931034482758" height="14.137931034482758" style="fill:#000000;shape-rendering:crispEdges;"/>
<rect x="141.3793103448276" y="268.6206896551724" width="14.137931034482758" height="14.137931034482758" style="fill:#000000;shape-rendering:crispEdges;"/>
<rect x="169.65517241379308" y="268.6206896551724" width="14.137931034482758" height="14.137931034482758" style="fill:#000000;shape-rendering:crispEdges;"/>
<rect x="183.79310344827584" y="268.6206896551724" width="14.137931034482758" height="14.137931034482758" style="fill:#000000;shape-rendering:crispEdges;"/>
<rect x="212.06896551724137" y="268.6206896551724" width="14.137931034482758" height="14.137931034482758" style="fill:#000000;shape-rendering:crispEdges;"/>
<rect x="226.20689655172413" y="268.6206896551724" width="14.137931034482758" height="14.137931034482758" style="fill:#000000;shape-rendering:crispEdges;"/>
<rect x="268.6206896551724" y="268.6206896551724" width="14.137931034482758" height="14.137931034482758" style="fill:#000000;shape-rendering:crispEdges;"/>
<rect x="282.7586206896552" y="268.6206896551724" width="14.137931034482758" height="14.137931034482758" style="fill:#000000;shape-rendering:crispEdges;"/>
<rect x="296.8965517241379" y="268.6206896551724" width="14.137931034482758" height="14.137931034482758" style="fill:#000000;shape-rendering:crispEdges;"/>
<rect x="325.17241379310343" y="268.6206896551724" width="14.137931034482758" height="14.137931034482758" style="fill:#000000;shape-rendering:crispEdges;"/>
<rect x="367.5862068965517" y="268.6206896551724" width="14.137931034482758" height="14.137931034482758" style="fill:#000000;shape-rendering:crispEdges;"/>
<rect x="381.7241379310345" y="268.6206896551724" width="14.137931034482758" height="14.137931034482758" style="fill:#000000;shape-rendering:crispEdges;"/>
<rect x="0" y="282.7586206896552" width="14.137931034482758" height="14.137931034482758" style="fill:#000000;shape-rendering:crispEdges;"/>
<rect x="28.275862068965516" y="282.7586206896552" width="14.137931034482758" height="14.137931034482758" style="fill:#000000;shape-rendering:crispEdges;"/>
<rect x="42.41379310344827" y="282.7586206896552" width="14.137931034482758" height="14.137931034482758" style="fill:#000000;shape-rendering:crispEdges;"/>
<rect x="84.82758620689654" y="282.7586206896552" width="14.137931034482758" height="14.137931034482758" style="fill:#000000;shape-rendering:crispEdges;"/>
<rect x="113.10344827586206" y="282.7586206896552" width="14.137931034482758" height="14.137931034482758" style="fill:#000000;shape-rendering:crispEdges;"/>
<rect x="127.24137931034483" y="282.7586206896552" width="14.137931034482758" height="14.137931034482758" style="fill:#000000;shape-rendering:crispEdges;"/>
<rect x="169.65517241379308" y="282.7586206896552" width="14.137931034482758" height="14.137931034482758" style="fill:#000000;shape-rendering:crispEdges;"/>
<rect x="183.79310344827584" y="282.7586206896552" width="14.137931034482758" height="14.137931034482758" style="fill:#000000;shape-rendering:crispEdges;"/>
<rect x="268.6206896551724" y="282.7586206896552" width="14.137931034482758" height="14.137931034482758" style="fill:#000000;shape-rendering:crispEdges;"/>
<rect x="282.7586206896552" y="282.7586206896552" width="14.137931034482758" height="14.137931034482758" style="fill:#000000;shape-rendering:crispEdges;"/>
<rect x="296.8965517241379" y="282.7586206896552" width="14.137931034482758" height="14.137931034482758" style="fill:#000000;shape-rendering:crispEdges;"/>
<rect x="311.0344827586207" y="282.7586206896552" width="14.137931034482758" height="14.137931034482758" style="fill:#000000;shape-rendering:crispEdges;"/>
<rect x="325.17241379310343" y="282.7586206896552" width="14.137931034482758" height="14.137931034482758" style="fill:#000000;shape-rendering:crispEdges;"/>
<rect x="339.31034482758616" y="282.7586206896552" width="14.137931034482758" height="14.137931034482758" style="fill:#000000;shape-rendering:crispEdges;"/>
<rect x="353.44827586206895" y="282.7586206896552" width="14.137931034482758" height="14.137931034482758" style="fill:#000000;shape-rendering:crispEdges;"/>
<rect x="367.5862068965517" y="282.7586206896552" width="14.137931034482758" height="14.137931034482758" style="fill:#000000;shape-rendering:crispEdges;"/>
<rect x="381.7241379310345" y="282.7586206896552" width="14.137931034482758" height="14.137931034482758" style="fill:#000000;shape-rendering:crispEdges;"/>
<rect x="395.8620689655172" y="282.7586206896552" width="14.137931034482758" height="14.137931034482758" style="fill:#000000;shape-rendering:crispEdges;"/>
<rect x="127.24137931034483" y="296.8965517241379" width="14.137931034482758" height="14.137931034482758" style="fill:#000000;shape-rendering:crispEdges;"/>
<rect x="169.65517241379308" y="296.8965517241379" width="14.137931034482758" height="14.137931034482758" style="fill:#000000;shape-rendering:crispEdges;"/>
<rect x="183.79310344827584" y="296.8965517241379" width="14.137931034482758" height="14.137931034482758" style="fill:#000000;shape-rendering:crispEdges;"/>
<rect x="197.9310344827586" y="296.8965517241379" width="14.137931034482758" height="14.137931034482758" style="fill:#000000;shape-rendering:crispEdges;"/>
<rect x="212.06896551724137" y="296.8965517241379" width="14.137931034482758" height="14.137931034482758" style="fill:#000000;shape-rendering:crispEdges;"/>
<rect x="240.3448275862069" y="296.8965517241379" width="14.137931034482758" height="14.137931034482758" style="fill:#000000;shape-rendering:crispEdges;"/>
<rect x="254.48275862068965" y="296.8965517241379" width="14.137931034482758" height="14.137931034482758" style="fill:#000000;shape-rendering:crispEdges;"/>
<rect x="268.6206896551724" y="296.8965517241379" width="14.137931034482758" height="14.137931034482758" style="fill:#000000;shape-rendering:crispEdges;"/>
<rect x="282.7586206896552" y="296.8965517241379" width="14.137931034482758" height="14.137931034482758" style="fill:#000000;shape-rendering:crispEdges;"/>
<rect x="339.31034482758616" y="296.8965517241379" width="14.137931034482758" height="14.137931034482758" style="fill:#000000;shape-rendering:crispEdges;"/>
<rect x="381.7241379310345" y="296.8965517241379" width="14.137931034482758" height="14.137931034482758" style="fill:#000000;shape-rendering:crispEdges;"/>
<rect x="395.8620689655172" y="296.8965517241379" width="14.137931034482758" height="14.137931034482758" style="fill:#000000;shape-rendering:crispEdges;"/>
<rect x="0" y="311.0344827586207" width="14.137931034482758" height="14.137931034482758" style="fill:#000000;shape-rendering:crispEdges;"/>
<rect x="14.137931034482758" y="311.0344827586207" width="14.137931034482758" height="14.137931034482758" style="fill:#000000;shape-rendering:crispEdges;"/>
<rect x="28.275862068965516" y="311.0344827586207" width="14.137931034482758" height="14.137931034482758" style="fill:#000000;shape-rendering:crispEdges;"/>
<rect x="42.41379310344827" y="311.0344827586207" width="14.137931034482758" height="14.137931034482758" style="fill:#000000;shape-rendering:crispEdges;"/>
<rect x="56.55172413793103" y="311.0344827586207" width="14.137931034482758" height="14.137931034482758" style="fill:#000000;shape-rendering:crispEdges;"/>
<rect x="70.6896551724138" y="311.0344827586207" width="14.137931034482758" height="14.137931034482758" style="fill:#000000;shape-rendering:crispEdges;"/>
<rect x="84.82758620689654" y="311.0344827586207" width="14.137931034482758" height="14.137931034482758" style="fill:#000000;shape-rendering:crispEdges;"/>
<rect x="113.10344827586206" y="311.0344827586207" width="14.137931034482758" height="14.137931034482758" style="fill:#000000;shape-rendering:crispEdges;"/>
<rect x="127.24137931034483" y="311.0344827586207" width="14.137931034482758" height="14.137931034482758" style="fill:#000000;shape-rendering:crispEdges;"/>
<rect x="141.3793103448276" y="311.0344827586207" width="14.137931034482758" height="14.137931034482758" style="fill:#000000;shape-rendering:crispEdges;"/>
<rect x="169.65517241379308" y="311.0344827586207" width="14.137931034482758" height="14.137931034482758" style="fill:#000000;shape-rendering:crispEdges;"/>
<rect x="212.06896551724137" y="311.0344827586207" width="14.137931034482758" height="14.137931034482758" style="fill:#000000;shape-rendering:crispEdges;"/>
<rect x="240.3448275862069" y="311.0344827586207" width="14.137931034482758" height="14.137931034482758" style="fill:#000000;shape-rendering:crispEdges;"/>
<rect x="282.7586206896552" y="311.0344827586207" width="14.137931034482758" height="14.137931034482758" style="fill:#000000;shape-rendering:crispEdges;"/>
<rect x="311.0344827586207" y="311.0344827586207" width="14.137931034482758" height="14.137931034482758" style="fill:#000000;shape-rendering:crispEdges;"/>
<rect x="339.31034482758616" y="311.0344827586207" width="14.137931034482758" height="14.137931034482758" style="fill:#000000;shape-rendering:crispEdges;"/>
<rect x="353.44827586206895" y="311.0344827586207" width="14.137931034482758" height="14.137931034482758" style="fill:#000000;shape-rendering:crispEdges;"/>
<rect x="395.8620689655172" y="311.0344827586207" width="14.137931034482758" height="14.137931034482758" style="fill:#000000;shape-rendering:crispEdges;"/>
<rect x="0" y="325.17241379310343" width="14.137931034482758" height="14.137931034482758" style="fill:#000000;shape-rendering:crispEdges;"/>
<rect x="84.82758620689654" y="325.17241379310343" width="14.137931034482758" height="14.137931034482758" style="fill:#000000;shape-rendering:crispEdges;"/>
<rect x="113.10344827586206" y="325.17241379310343" width="14.137931034482758" height="14.137931034482758" style="fill:#000000;shape-rendering:crispEdges;"/>
<rect x="240.3448275862069" y="325.17241379310343" width="14.137931034482758" height="14.137931034482758" style="fill:#000000;shape-rendering:crispEdges;"/>
<rect x="254.48275862068965" y="325.17241379310343" width="14.137931034482758" height="14.137931034482758" style="fill:#000000;shape-rendering:crispEdges;"/>
<rect x="282.7586206896552" y="325.17241379310343" width="14.137931034482758" height="14.137931034482758" style="fill:#000000;shape-rendering:crispEdges;"/>
<rect x="339.31034482758616" y="325.17241379310343" width="14.137931034482758" height="14.137931034482758" style="fill:#000000;shape-rendering:crispEdges;"/>
<rect x="381.7241379310345" y="325.17241379310343" width="14.137931034482758" height="14.137931034482758" style="fill:#000000;shape-rendering:crispEdges;"/>
<rect x="0" y="339.31034482758616" width="14.137931034482758" height="14.137931034482758" style="fill:#000000;shape-rendering:crispEdges;"/>
<rect x="28.275862068965516" y="339.31034482758616" width="14.137931034482758" height="14.137931034482758" style="fill:#000000;shape-rendering:crispEdges;"/>
<rect x="42.41379310344827" y="339.31034482758616" width="14.137931034482758" height="14.137931034482758" style="fill:#000000;shape-rendering:crispEdges;"/>
<rect x="56.55172413793103" y="339.31034482758616" width="14.137931034482758" height="14.137931034482758" style="fill:#000000;shape-rendering:crispEdges;"/>
<rect x="84.82758620689654" y="339.31034482758616" width="14.137931034482758" height="14.137931034482758" style="fill:#000000;shape-rendering:crispEdges;"/>
<rect x="113.10344827586206" y="339.31034482758616" width="14.137931034482758" height="14.137931034482758" style="fill:#000000;shape-rendering:crispEdges;"/>
<rect x="155.51724137931035" y="339.31034482758616" width="14.137931034482758" height="14.137931034482758" style="fill:#000000;shape-rendering:crispEdges;"/>
<rect x="197.9310344827586" y="339.31034482758616" width="14.137931034482758" height="14.137931034482758" style="fill:#000000;shape-rendering:crispEdges;"/>
<rect x="254.48275862068965" y="339.31034482758616" width="14.137931034482758" height="14.137931034482758" style="fill:#000000;shape-rendering:crispEdges;"/>
<rect x="282.7586206896552" y="339.31034482758616" width="14.137931034482758" height="14.137931034482758" style="fill:#000000;shape-rendering:crispEdges;"/>
<rect x="296.8965517241379" y="339.31034482758616" width="14.137931034482758" height="14.137931034482758" style="fill:#000000;shape-rendering:crispEdges;"/>
<rect x="311.0344827586207" y="339.31034482758616" width="14.137931034482758" height="14.137931034482758" style="fill:#000000;shape-rendering:crispEdges;"/>
<rect x="325.17241379310343" y="339.31034482758616" width="14.137931034482758" height="14.137931034482758" style="fill:#000000;shape-rendering:crispEdges;"/>
<rect x="339.31034482758616" y="339.31034482758616" width="14.137931034482758" height="14.137931034482758" style="fill:#000000;shape-rendering:crispEdges;"/>
<rect x="353.44827586206895" y="339.31034482758616" width="14.137931034482758" height="14.137931034482758" style="fill:#000000;shape-rendering:crispEdges;"/>
<rect x="367.5862068965517" y="339.31034482758616" width="14.137931034482758" height="14.137931034482758" style="fill:#000000;shape-rendering:crispEdges;"/>
<rect x="381.7241379310345" y="339.31034482758616" width="14.137931034482758" height="14.137931034482758" style="fill:#000000;shape-rendering:crispEdges;"/>
<rect x="0" y="353.44827586206895" width="14.137931034482758" height="14.137931034482758" style="fill:#000000;shape-rendering:crispEdges;"/>
<rect x="28.275862068965516" y="353.44827586206895" width="14.137931034482758" height="14.137931034482758" style="fill:#000000;shape-rendering:crispEdges;"/>
<rect x="42.41379310344827" y="353.44827586206895" width="14.137931034482758" height="14.137931034482758" style="fill:#000000;shape-rendering:crispEdges;"/>
<rect x="56.55172413793103" y="353.44827586206895" width="14.137931034482758" height="14.137931034482758" style="fill:#000000;shape-rendering:crispEdges;"/>
<rect x="84.82758620689654" y="353.44827586206895" width="14.137931034482758" height="14.137931034482758" style="fill:#000000;shape-rendering:crispEdges;"/>
<rect x="127.24137931034483" y="353.44827586206895" width="14.137931034482758" height="14.137931034482758" style="fill:#000000;shape-rendering:crispEdges;"/>
<rect x="141.3793103448276" y="353.44827586206895" width="14.137931034482758" height="14.137931034482758" style="fill:#000000;shape-rendering:crispEdges;"/>
<rect x="169.65517241379308" y="353.44827586206895" width="14.137931034482758" height="14.137931034482758" style="fill:#000000;shape-rendering:crispEdges;"/>
<rect x="197.9310344827586" y="353.44827586206895" width="14.137931034482758" height="14.137931034482758" style="fill:#000000;shape-rendering:crispEdges;"/>
<rect x="212.06896551724137" y="353.44827586206895" width="14.137931034482758" height="14.137931034482758" style="fill:#000000;shape-rendering:crispEdges;"/>
<rect x="240.3448275862069" y="353.44827586206895" width="14.137931034482758" height="14.137931034482758" style="fill:#000000;shape-rendering:crispEdges;"/>
<rect x="325.17241379310343" y="353.44827586206895" width="14.137931034482758" height="14.137931034482758" style="fill:#000000;shape-rendering:crispEdges;"/>
<rect x="353.44827586206895" y="353.44827586206895" width="14.137931034482758" height="14.137931034482758" style="fill:#000000;shape-rendering:crispEdges;"/>
<rect x="367.5862068965517" y="353.44827586206895" width="14.137931034482758" height="14.137931034482758" style="fill:#000000;shape-rendering:crispEdges;"/>
<rect x="395.8620689655172" y="353.44827586206895" width="14.137931034482758" height="14.137931034482758" style="fill:#000000;shape-rendering:crispEdges;"/>
<rect x="0" y="367.5862068965517" width="14.137931034482758" height="14.137931034482758" style="fill:#000000;shape-rendering:crispEdges;"/>
<rect x="28.275862068965516" y="367.5862068965517" width="14.137931034482758" height="14.137931034482758" style="fill:#000000;shape-rendering:crispEdges;"/>
<rect x="42.41379310344827" y="367.5862068965517" width="14.137931034482758" height="14.137931034482758" style="fill:#000000;shape-rendering:crispEdges;"/>
<rect x="56.55172413793103" y="367.5862068965517" width="14.137931034482758" height="14.137931034482758" style="fill:#000000;shape-rendering:crispEdges;"/>
<rect x="84.82758620689654" y="367.5862068965517" width="14.137931034482758" height="14.137931034482758" style="fill:#000000;shape-rendering:crispEdges;"/>
<rect x="113.10344827586206" y="367.5862068965517" width="14.137931034482758" height="14.137931034482758" style="fill:#000000;shape-rendering:crispEdges;"/>
<rect x="141.3793103448276" y="367.5862068965517" width="14.137931034482758" height="14.137931034482758" style="fill:#000000;shape-rendering:crispEdges;"/>
<rect x="155.51724137931035" y="367.5862068965517" width="14.137931034482758" height="14.137931034482758" style="fill:#000000;shape-rendering:crispEdges;"/>
<rect x="197.9310344827586" y="367.5862068965517" width="14.137931034482758" height="14.137931034482758" style="fill:#000000;shape-rendering:crispEdges;"/>
<rect x="282.7586206896552" y="367.5862068965517" width="14.137931034482758" height="14.137931034482758" style="fill:#000000;shape-rendering:crispEdges;"/>
<rect x="296.8965517241379" y="367.5862068965517" width="14.137931034482758" height="14.137931034482758" style="fill:#000000;shape-rendering:crispEdges;"/>
<rect x="325.17241379310343" y="367.5862068965517" width="14.137931034482758" height="14.137931034482758" style="fill:#000000;shape-rendering:crispEdges;"/>
<rect x="353.44827586206895" y="367.5862068965517" width="14.137931034482758" height="14.137931034482758" style="fill:#000000;shape-rendering:crispEdges;"/>
<rect x="367.5862068965517" y="367.5862068965517" width="14.137931034482758" height="14.137931034482758" style="fill:#000000;shape-rendering:crispEdges;"/>
<rect x="0" y="381.7241379310345" width="14.137931034482758" height="14.137931034482758" style="fill:#000000;shape-rendering:crispEdges;"/>
<rect x="84.82758620689654" y="381.7241379310345" width="14.137931034482758" height="14.137931034482758" style="fill:#000000;shape-rendering:crispEdges;"/>
<rect x="113.10344827586206" y="381.7241379310345" width="14.137931034482758" height="14.137931034482758" style="fill:#000000;shape-rendering:crispEdges;"/>
<rect x="141.3793103448276" y="381.7241379310345" width="14.137931034482758" height="14.137931034482758" style="fill:#000000;shape-rendering:crispEdges;"/>
<rect x="155.51724137931035" y="381.7241379310345" width="14.137931034482758" height="14.137931034482758" style="fill:#000000;shape-rendering:crispEdges;"/>
<rect x="169.65517241379308" y="381.7241379310345" width="14.137931034482758" height="14.137931034482758" style="fill:#000000;shape-rendering:crispEdges;"/>
<rect x="197.9310344827586" y="381.7241379310345" width="14.137931034482758" height="14.137931034482758" style="fill:#000000;shape-rendering:crispEdges;"/>
<rect x="212.06896551724137" y="381.7241379310345" width="14.137931034482758" height="14.137931034482758" style="fill:#000000;shape-rendering:crispEdges;"/>
<rect x="226.20689655172413" y="381.7241379310345" width="14.137931034482758" height="14.137931034482758" style="fill:#000000;shape-rendering:crispEdges;"/>
<rect x="254.48275862068965" y="381.7241379310345" width="14.137931034482758" height="14.137931034482758" style="fill:#000000;shape-rendering:crispEdges;"/>
<rect x="268.6206896551724" y="381.7241379310345" width="14.137931034482758" height="14.137931034482758" style="fill:#000000;shape-rendering:crispEdges;"/>
<rect x="296.8965517241379" y="381.7241379310345" width="14.137931034482758" height="14.137931034482758" style="fill:#000000;shape-rendering:crispEdges;"/>
<rect x="311.0344827586207" y="381.7241379310345" width="14.137931034482758" height="14.137931034482758" style="fill:#000000;shape-rendering:crispEdges;"/>
<rect x="325.17241379310343" y="381.7241379310345" width="14.137931034482758" height="14.137931034482758" style="fill:#000000;shape-rendering:crispEdges;"/>
<rect x="353.44827586206895" y="381.7241379310345" width="14.137931034482758" height="14.137931034482758" style="fill:#000000;shape-rendering:crispEdges;"/>
<rect x="381.7241379310345" y="381.7241379310345" width="14.137931034482758" height="14.137931034482758" style="fill:#000000;shape-rendering:crispEdges;"/>
<rect x="395.8620689655172" y="381.7241379310345" width="14.137931034482758" height="14.137931034482758" style="fill:#000000;shape-rendering:crispEdges;"/>
<rect x="0" y="395.8620689655172" width="14.137931034482758" height="14.137931034482758" style="fill:#000000;shape-rendering:crispEdges;"/>
<rect x="14.137931034482758" y="395.8620689655172" width="14.137931034482758" height="14.137931034482758" style="fill:#000000;shape-rendering:crispEdges;"/>
<rect x="28.275862068965516" y="395.8620689655172" width="14.137931034482758" height="14.137931034482758" style="fill:#000000;shape-rendering:crispEdges;"/>
<rect x="42.41379310344827" y="395.8620689655172" width="14.137931034482758" height="14.137931034482758" style="fill:#000000;shape-rendering:crispEdges;"/>
<rect x="56.55172413793103" y="395.8620689655172" width="14.137931034482758" height="14.137931034482758" style="fill:#000000;shape-rendering:crispEdges;"/>
<rect x="70.6896551724138" y="395.8620689655172" width="14.137931034482758" height="14.137931034482758" style="fill:#000000;shape-rendering:crispEdges;"/>
<rect x="84.82758620689654" y="395.8620689655172" width="14.137931034482758" height="14.137931034482758" style="fill:#000000;shape-rendering:crispEdges;"/>
<rect x="127.24137931034483" y="395.8620689655172" width="14.137931034482758" height="14.137931034482758" style="fill:#000000;shape-rendering:crispEdges;"/>
<rect x="169.65517241379308" y="395.8620689655172" width="14.137931034482758" height="14.137931034482758" style="fill:#000000;shape-rendering:crispEdges;"/>
<rect x="197.9310344827586" y="395.8620689655172" width="14.137931034482758" height="14.137931034482758" style="fill:#000000;shape-rendering:crispEdges;"/>
<rect x="240.3448275862069" y="395.8620689655172" width="14.137931034482758" height="14.137931034482758" style="fill:#000000;shape-rendering:crispEdges;"/>
<rect x="254.48275862068965" y="395.8620689655172" width="14.137931034482758" height="14.137931034482758" style="fill:#000000;shape-rendering:crispEdges;"/>
<rect x="268.6206896551724" y="395.8620689655172" width="14.137931034482758" height="14.137931034482758" style="fill:#000000;shape-rendering:crispEdges;"/>
<rect x="296.8965517241379" y="395.8620689655172" width="14.137931034482758" height="14.137931034482758" style="fill:#000000;shape-rendering:crispEdges;"/>
<rect x="325.17241379310343" y="395.8620689655172" width="14.137931034482758" height="14.137931034482758" style="fill:#000000;shape-rendering:crispEdges;"/>
<rect x="367.5862068965517" y="395.8620689655172" width="14.137931034482758" height="14.137931034482758" style="fill:#000000;shape-rendering:crispEdges;"/>
</svg>